# xmcd
#
# Track frame offsets: 
#        150
#        17577
#        32005
#        47997
#        67165
#        87685
#        100930
#        119137
#        135957
#        147837
#        165502
#
# Disc length: 2446 seconds
#
# Revision: 3
# Processed by: cddbd v1.5.2PL0 Copyright (c) Steve Scherf et al.
# Submitted via: ExactAudioCopyFreeDBPlugin 1.0
#
DISCID=9b098c0b
DTITLE=Garth Brooks - In Pieces
DYEAR=1993
DGENRE=Country
TTITLE0=Standing Outside The Fire
TTITLE1=The Night I Called The Old Man Out
TTITLE2=American Honky-Tonk Bar Association
TTITLE3=One Night A Day
TTITLE4=Ain't Going Down (Til The Sun Comes Up)
TTITLE5=Anonymous
TTITLE6=Kickin' And Screamin'
TTITLE7=The Red Strokes
TTITLE8=Callin' Baton Rouge
TTITLE9=The Night Will Only Know
TTITLE10=The Cowboy Song
EXTD=
EXTT0=
EXTT1=
EXTT2=
EXTT3=
EXTT4=
EXTT5=
EXTT6=
EXTT7=
EXTT8=
EXTT9=
EXTT10=
PLAYORDER=
